<?xml version="1.0" encoding="UTF-8" standalone="no"?>
<svg
   width="192"
   height="192"
   viewBox="0 0 192 192"
   version="1.1"
   id="svg88"
   sodipodi:docname="forest.svg"
   inkscape:version="1.2.2 (b0a8486541, 2022-12-01)"
   xmlns:inkscape="http://www.inkscape.org/namespaces/inkscape"
   xmlns:sodipodi="http://sodipodi.sourceforge.net/DTD/sodipodi-0.dtd"
   xmlns="http://www.w3.org/2000/svg"
   xmlns:svg="http://www.w3.org/2000/svg">
  <sodipodi:namedview
     id="namedview90"
     pagecolor="#505050"
     bordercolor="#eeeeee"
     borderopacity="1"
     inkscape:showpageshadow="0"
     inkscape:pageopacity="0"
     inkscape:pagecheckerboard="0"
     inkscape:deskcolor="#d1d1d1"
     showgrid="false"
     inkscape:zoom="1.3037281"
     inkscape:cx="2.3010933"
     inkscape:cy="137.68208"
     inkscape:window-width="2560"
     inkscape:window-height="1403"
     inkscape:window-x="0"
     inkscape:window-y="0"
     inkscape:window-maximized="1"
     inkscape:current-layer="svg88" />
  <defs
     id="defs28">
    <!-- Dark canopy gradient (symmetric for seamless tiling) -->
    <linearGradient
       id="canopy"
       x1="0"
       y1="0"
       x2="0"
       y2="1">
      <stop
         offset="0%"
         stop-color="#1f3816"
         id="stop2" />
      <stop
         offset="50%"
         stop-color="#2d541f"
         id="stop4" />
      <stop
         offset="100%"
         stop-color="#1f3816"
         id="stop6" />
    </linearGradient>
    <!-- Speckle / leaf pattern -->
    <pattern
       id="leafTex"
       patternUnits="objectBoundingBox"
       width="0.125"
       height="0.125"
       viewBox="0 0 4 4"
       preserveAspectRatio="none">
      <rect
         width="4"
         height="4"
         fill="none"
         id="rect9" />
      <circle
         cx="0.9"
         cy="1.0"
         r="0.25"
         fill="#3d6b2a"
         opacity="0.4"
         id="circle11" />
      <circle
         cx="2.9"
         cy="1.9"
         r="0.23"
         fill="#26451c"
         opacity="0.35"
         id="circle13" />
      <circle
         cx="2.1"
         cy="3.1"
         r="0.22"
         fill="#3d6b2a"
         opacity="0.35"
         id="circle15" />
      <circle
         cx="1.4"
         cy="2.3"
         r="0.18"
         fill="#426f2d"
         opacity="0.5"
         id="circle17" />
    </pattern>
    <!-- Shadow mask (slight darkening toward edges for depth while still seamless) -->
    <radialGradient
       id="shade"
       cx="0.5"
       cy="0.5"
       r="0.75">
      <stop
         offset="60%"
         stop-color="#ffffff"
         id="stop20" />
      <stop
         offset="100%"
         stop-color="#222"
         id="stop22" />
    </radialGradient>
    <mask
       id="shadeMask">
      <rect
         x="0"
         y="0"
         width="64"
         height="64"
         fill="url(#shade)"
         id="rect25" />
    </mask>
  </defs>
  <rect
     style="opacity:1;fill:#8ae234;stroke:none;stroke-width:2.44566;stroke-linejoin:round"
     id="rect2166"
     width="52.174107"
     height="52.174107"
     x="69.912949"
     y="69.912949" />
  <!-- Base canopy -->
  <!-- Leaf texture -->
  <!-- Tree crown clusters (kept inside edges to avoid tiling seams) -->
  <!-- Highlights -->
  <!-- Impression of trunks below canopy (subtle, not full trees) -->
  <path
     id="path1428"
     style="fill:#73d216;stroke:#4e9a06;stroke-width:2.44566;stroke-linejoin:round"
     d="m 130.2424,89.414142 a 12.000194,14.682603 70.845693 0 0 -6.11734,0.976035 12.000194,14.682603 70.845693 0 0 -3.8723,1.907489 14.682603,12.000194 0 0 0 -9.08365,-2.571448 14.682603,12.000194 0 0 0 -14.681935,12.000612 14.682603,12.000194 0 0 0 5.536175,9.35434 12.000194,14.682603 52.849836 0 0 1.97755,5.20181 12.000194,14.682603 52.849836 0 0 18.95069,0.69739 12.000194,14.682603 52.849836 0 0 3.05071,-2.94562 12.000194,14.682603 70.845693 0 0 5.99791,-0.97285 12.000194,14.682603 70.845693 0 0 9.93232,-16.153144 12.000194,14.682603 70.845693 0 0 -11.69013,-7.494614 z" />
  <path
     id="ellipse2092"
     style="fill:#8ae234;stroke:#4e9a06;stroke-width:2.44566;stroke-linejoin:round"
     d="m 114.88752,106.15695 a 10.365455,12.328249 0 0 0 -6.45171,2.71156 12.487435,10.954785 36.746226 0 0 -14.583205,6.16033 12.487435,10.954785 36.746226 0 0 3.822938,12.34135 14.170743,10.628231 59.687059 0 0 0.819998,5.96927 14.170743,10.628231 59.687059 0 0 15.175519,11.36691 14.170743,10.628231 59.687059 0 0 6.35617,-15.08954 14.170743,10.628231 59.687059 0 0 -0.1433,-0.36622 10.365455,12.328249 0 0 0 5.36899,-10.76504 10.365455,12.328249 0 0 0 -10.3654,-12.32862 z" />
  <path
     id="ellipse2098"
     style="fill:#73d216;stroke:#4e9a06;stroke-width:2.44566;stroke-linejoin:round"
     d="m 140.76068,103.66377 a 10.628231,14.170743 59.687059 0 0 -5.205,0.86776 10.628231,14.170743 59.687059 0 0 -6.7781,4.04904 12.328249,10.365455 0 0 0 -0.90598,-0.0302 12.328249,10.365455 0 0 0 -12.32862,10.36539 12.328249,10.365455 0 0 0 8.59006,9.86226 10.954785,12.487435 36.746226 0 0 6.15715,5.70177 10.954785,12.487435 36.746226 0 0 15.1182,-8.23978 10.954785,12.487435 36.746226 0 0 0.88528,-4.4232 10.628231,14.170743 59.687059 0 0 4.35156,-10.92746 10.628231,14.170743 59.687059 0 0 -9.88455,-7.22553 z" />
  <path
     id="path2278"
     style="fill:#73d216;stroke:#4e9a06;stroke-width:2.44566;stroke-linejoin:round"
     d="m 130.2424,37.240036 a 12.000194,14.682603 70.845693 0 0 -6.11734,0.976035 12.000194,14.682603 70.845693 0 0 -3.8723,1.907489 14.682603,12.000194 0 0 0 -9.08365,-2.571448 14.682603,12.000194 0 0 0 -14.681935,12.000618 14.682603,12.000194 0 0 0 5.536175,9.354336 12.000194,14.682603 52.849836 0 0 1.97755,5.201806 12.000194,14.682603 52.849836 0 0 18.95069,0.697396 12.000194,14.682603 52.849836 0 0 3.05071,-2.945621 12.000194,14.682603 70.845693 0 0 5.99791,-0.972851 12.000194,14.682603 70.845693 0 0 9.93232,-16.153146 12.000194,14.682603 70.845693 0 0 -11.69013,-7.494614 z" />
  <path
     id="path2280"
     style="fill:#8ae234;stroke:#4e9a06;stroke-width:2.44566;stroke-linejoin:round"
     d="m 114.88752,53.982845 a 10.365455,12.328249 0 0 0 -6.45171,2.711564 12.487435,10.954785 36.746226 0 0 -14.583205,6.160328 12.487435,10.954785 36.746226 0 0 3.822938,12.341351 14.170743,10.628231 59.687059 0 0 0.819998,5.969264 14.170743,10.628231 59.687059 0 0 15.175519,11.366911 14.170743,10.628231 59.687059 0 0 6.35617,-15.089542 14.170743,10.628231 59.687059 0 0 -0.1433,-0.366213 10.365455,12.328249 0 0 0 5.36899,-10.765043 10.365455,12.328249 0 0 0 -10.3654,-12.32862 z" />
  <path
     id="path2282"
     style="fill:#73d216;stroke:#4e9a06;stroke-width:2.44566;stroke-linejoin:round"
     d="m 140.76068,51.489667 a 10.628231,14.170743 59.687059 0 0 -5.205,0.867764 10.628231,14.170743 59.687059 0 0 -6.7781,4.049034 12.328249,10.365455 0 0 0 -0.90598,-0.03025 12.328249,10.365455 0 0 0 -12.32862,10.365399 12.328249,10.365455 0 0 0 8.59006,9.862257 10.954785,12.487435 36.746226 0 0 6.15715,5.701766 10.954785,12.487435 36.746226 0 0 15.1182,-8.239776 10.954785,12.487435 36.746226 0 0 0.88528,-4.423208 10.628231,14.170743 59.687059 0 0 4.35156,-10.927457 10.628231,14.170743 59.687059 0 0 -9.88455,-7.225527 z" />
  <path
     id="path2284"
     style="fill:#73d216;stroke:#4e9a06;stroke-width:2.44566;stroke-linejoin:round"
     d="m 131.46366,71.118646 a 12.802456,9.6309446 59.124323 0 0 -7.33062,5.485223 12.328249,10.365455 0 0 0 -8.92284,9.959386 12.328249,10.365455 0 0 0 10.28261,10.206176 10.373461,12.259914 24.29811 0 0 5.5919,5.357839 10.373461,12.259914 24.29811 0 0 14.05459,-8.239774 10.373461,12.259914 24.29811 0 0 -0.84706,-10.901983 12.802456,9.6309446 59.124323 0 0 -8.71426,-10.968851 12.802456,9.6309446 59.124323 0 0 -4.11432,-0.898016 z" />
  <path
     id="path2288"
     style="fill:#73d216;stroke:#4e9a06;stroke-width:2.44566;stroke-linejoin:round"
     d="m 78.068289,37.240036 a 12.000194,14.682603 70.845693 0 0 -6.117337,0.976035 12.000194,14.682603 70.845693 0 0 -3.872297,1.907489 14.682603,12.000194 0 0 0 -9.083657,-2.571448 14.682603,12.000194 0 0 0 -14.681929,12.000618 14.682603,12.000194 0 0 0 5.536175,9.354336 12.000194,14.682603 52.849836 0 0 1.977546,5.201806 12.000194,14.682603 52.849836 0 0 18.95069,0.697396 12.000194,14.682603 52.849836 0 0 3.050707,-2.945621 12.000194,14.682603 70.845693 0 0 5.997921,-0.972851 12.000194,14.682603 70.845693 0 0 9.932314,-16.153146 12.000194,14.682603 70.845693 0 0 -11.690133,-7.494614 z" />
  <path
     id="path2290"
     style="fill:#8ae234;stroke:#4e9a06;stroke-width:2.44566;stroke-linejoin:round"
     d="m 62.713415,53.982845 a 10.365455,12.328249 0 0 0 -6.451706,2.711564 12.487435,10.954785 36.746226 0 0 -14.58321,6.160328 12.487435,10.954785 36.746226 0 0 3.822938,12.341351 14.170743,10.628231 59.687059 0 0 0.819997,5.969264 14.170743,10.628231 59.687059 0 0 15.175519,11.366911 14.170743,10.628231 59.687059 0 0 6.356172,-15.089542 14.170743,10.628231 59.687059 0 0 -0.143301,-0.366213 10.365455,12.328249 0 0 0 5.368991,-10.765043 10.365455,12.328249 0 0 0 -10.3654,-12.32862 z" />
  <path
     id="path2292"
     style="fill:#73d216;stroke:#4e9a06;stroke-width:2.44566;stroke-linejoin:round"
     d="m 88.586572,51.489667 a 10.628231,14.170743 59.687059 0 0 -5.204994,0.867764 10.628231,14.170743 59.687059 0 0 -6.77811,4.049034 12.328249,10.365455 0 0 0 -0.905979,-0.03025 12.328249,10.365455 0 0 0 -12.328615,10.365399 12.328249,10.365455 0 0 0 8.590063,9.862257 10.954785,12.487435 36.746226 0 0 6.157148,5.701766 10.954785,12.487435 36.746226 0 0 15.118198,-8.239776 10.954785,12.487435 36.746226 0 0 0.88528,-4.423208 10.628231,14.170743 59.687059 0 0 4.351557,-10.927457 10.628231,14.170743 59.687059 0 0 -9.884548,-7.225527 z" />
  <path
     id="path2298"
     style="fill:#73d216;stroke:#4e9a06;stroke-width:2.44566;stroke-linejoin:round"
     d="m 78.068289,89.414142 a 12.000194,14.682603 70.845693 0 0 -6.117337,0.976035 12.000194,14.682603 70.845693 0 0 -3.872297,1.907489 14.682603,12.000194 0 0 0 -9.083657,-2.571448 14.682603,12.000194 0 0 0 -14.681929,12.000612 14.682603,12.000194 0 0 0 5.536175,9.35434 12.000194,14.682603 52.849836 0 0 1.977546,5.20181 12.000194,14.682603 52.849836 0 0 18.95069,0.69739 12.000194,14.682603 52.849836 0 0 3.050707,-2.94562 12.000194,14.682603 70.845693 0 0 5.997921,-0.97285 12.000194,14.682603 70.845693 0 0 9.932314,-16.153144 12.000194,14.682603 70.845693 0 0 -11.690133,-7.494614 z" />
  <path
     id="path2300"
     style="fill:#8ae234;stroke:#4e9a06;stroke-width:2.44566;stroke-linejoin:round"
     d="m 62.713415,106.15695 a 10.365455,12.328249 0 0 0 -6.451706,2.71156 12.487435,10.954785 36.746226 0 0 -14.58321,6.16033 12.487435,10.954785 36.746226 0 0 3.822938,12.34135 14.170743,10.628231 59.687059 0 0 0.819997,5.96927 14.170743,10.628231 59.687059 0 0 15.175519,11.36691 14.170743,10.628231 59.687059 0 0 6.356172,-15.08954 14.170743,10.628231 59.687059 0 0 -0.143301,-0.36622 10.365455,12.328249 0 0 0 5.368991,-10.76504 10.365455,12.328249 0 0 0 -10.3654,-12.32862 z" />
  <path
     id="path2302"
     style="fill:#73d216;stroke:#4e9a06;stroke-width:2.44566;stroke-linejoin:round"
     d="m 88.586572,103.66377 a 10.628231,14.170743 59.687059 0 0 -5.204994,0.86776 10.628231,14.170743 59.687059 0 0 -6.77811,4.04904 12.328249,10.365455 0 0 0 -0.905979,-0.0302 12.328249,10.365455 0 0 0 -12.328615,10.36539 12.328249,10.365455 0 0 0 8.590063,9.86226 10.954785,12.487435 36.746226 0 0 6.157148,5.70177 10.954785,12.487435 36.746226 0 0 15.118198,-8.23978 10.954785,12.487435 36.746226 0 0 0.88528,-4.4232 10.628231,14.170743 59.687059 0 0 4.351557,-10.92746 10.628231,14.170743 59.687059 0 0 -9.884548,-7.22553 z" />
  <path
     id="path2304"
     style="fill:#73d216;stroke:#4e9a06;stroke-width:2.44566;stroke-linejoin:round"
     d="m 79.289554,123.29276 a 12.802456,9.6309446 59.124323 0 0 -7.330617,5.48521 12.328249,10.365455 0 0 0 -8.92284,9.95939 12.328249,10.365455 0 0 0 10.282604,10.20618 10.373461,12.259914 24.29811 0 0 5.591906,5.35784 10.373461,12.259914 24.29811 0 0 14.054588,-8.23978 10.373461,12.259914 24.29811 0 0 -0.847063,-10.90198 12.802456,9.6309446 59.124323 0 0 -8.714258,-10.96885 12.802456,9.6309446 59.124323 0 0 -4.11432,-0.89801 z" />
  <path
     id="path2294"
     style="fill:#73d216;stroke:#4e9a06;stroke-width:2.44566;stroke-linejoin:round"
     d="m 79.289554,71.118646 a 12.802456,9.6309446 59.124323 0 0 -7.330617,5.485223 12.328249,10.365455 0 0 0 -8.92284,9.959386 12.328249,10.365455 0 0 0 10.282604,10.206176 10.373461,12.259914 24.29811 0 0 5.591906,5.357839 10.373461,12.259914 24.29811 0 0 14.054588,-8.239774 10.373461,12.259914 24.29811 0 0 -0.847063,-10.901983 12.802456,9.6309446 59.124323 0 0 -8.714258,-10.968851 12.802456,9.6309446 59.124323 0 0 -4.11432,-0.898016 z" />
</svg>
