<?xml version="1.0" encoding="UTF-8" standalone="no"?>
<svg
   width="64"
   height="64"
   viewBox="0 0 64 64"
   version="1.1"
   id="svg8592"
   sodipodi:docname="right.svg"
   inkscape:version="1.2.2 (b0a8486541, 2022-12-01)"
   xmlns:inkscape="http://www.inkscape.org/namespaces/inkscape"
   xmlns:sodipodi="http://sodipodi.sourceforge.net/DTD/sodipodi-0.dtd"
   xmlns:xlink="http://www.w3.org/1999/xlink"
   xmlns="http://www.w3.org/2000/svg"
   xmlns:svg="http://www.w3.org/2000/svg">
  <sodipodi:namedview
     id="namedview8594"
     pagecolor="#505050"
     bordercolor="#eeeeee"
     borderopacity="1"
     inkscape:showpageshadow="0"
     inkscape:pageopacity="0"
     inkscape:pagecheckerboard="0"
     inkscape:deskcolor="#d1d1d1"
     showgrid="false"
     inkscape:zoom="3.6875"
     inkscape:cx="32.40678"
     inkscape:cy="32.40678"
     inkscape:window-width="2560"
     inkscape:window-height="1403"
     inkscape:window-x="0"
     inkscape:window-y="0"
     inkscape:window-maximized="1"
     inkscape:current-layer="svg8592" />
  <defs
     id="defs8556">
    <linearGradient
       id="skin"
       x1="0%"
       y1="0%"
       x2="0%"
       y2="100%">
      <stop
         offset="0%"
         stop-color="#f5d7a7"
         id="stop8523" />
      <stop
         offset="60%"
         stop-color="#e8be83"
         id="stop8525" />
      <stop
         offset="100%"
         stop-color="#d9a868"
         id="stop8527" />
    </linearGradient>
    <linearGradient
       id="hair"
       x1="0%"
       y1="0%"
       x2="0%"
       y2="100%">
      <stop
         offset="0%"
         stop-color="#ffe46b"
         id="stop8530" />
      <stop
         offset="65%"
         stop-color="#e3b91c"
         id="stop8532" />
      <stop
         offset="100%"
         stop-color="#b78f0e"
         id="stop8534" />
    </linearGradient>
    <linearGradient
       id="robe"
       x1="0%"
       y1="0%"
       x2="0%"
       y2="100%">
      <stop
         offset="0%"
         stop-color="#8ec5ff"
         id="stop8537" />
      <stop
         offset="65%"
         stop-color="#5c90d0"
         id="stop8539" />
      <stop
         offset="100%"
         stop-color="#3a66a8"
         id="stop8541" />
    </linearGradient>
    <linearGradient
       id="cape"
       x1="0%"
       y1="0%"
       x2="0%"
       y2="100%">
      <stop
         offset="0%"
         stop-color="#9b2a2a"
         id="stop8544" />
      <stop
         offset="70%"
         stop-color="#6f1e1e"
         id="stop8546" />
      <stop
         offset="100%"
         stop-color="#4c1414"
         id="stop8548" />
    </linearGradient>
    <linearGradient
       id="boot"
       x1="0%"
       y1="0%"
       x2="0%"
       y2="100%">
      <stop
         offset="0%"
         stop-color="#7b4b1d"
         id="stop8551" />
      <stop
         offset="100%"
         stop-color="#4e2f12"
         id="stop8553" />
    </linearGradient>
    <linearGradient
       inkscape:collect="always"
       xlink:href="#robe-2"
       id="linearGradient1325"
       gradientUnits="userSpaceOnUse"
       gradientTransform="matrix(0.95327345,0,0,1.049017,-95.457626,-50.711864)"
       x1="23.655334"
       y1="27.978575"
       x2="23.655334"
       y2="52.001064" />
    <linearGradient
       id="robe-2"
       x1="23.655334"
       y1="27.978575"
       x2="23.655334"
       y2="52.001064"
       gradientTransform="matrix(0.95327342,0,0,1.049017,1.8052037,4.8000004)"
       gradientUnits="userSpaceOnUse">
      <stop
         offset="0%"
         stop-color="#8ec5ff"
         id="stop16" />
      <stop
         offset="65%"
         stop-color="#5c90d0"
         id="stop18" />
      <stop
         offset="100%"
         stop-color="#3a66a8"
         id="stop20" />
    </linearGradient>
    <linearGradient
       inkscape:collect="always"
       xlink:href="#skin"
       id="linearGradient1327"
       gradientUnits="userSpaceOnUse"
       x1="24.35"
       y1="8.9499998"
       x2="24.35"
       y2="28.049999"
       gradientTransform="translate(-95.457626,-50.711864)" />
    <linearGradient
       inkscape:collect="always"
       xlink:href="#hair-6"
       id="linearGradient1329"
       gradientUnits="userSpaceOnUse"
       gradientTransform="matrix(1.3983525,0,0,0.71512728,-95.457626,-50.711864)"
       x1="17.967024"
       y1="12.025831"
       x2="17.967024"
       y2="25.144382" />
    <linearGradient
       id="hair-6"
       x1="17.967024"
       y1="12.025831"
       x2="17.967024"
       y2="25.144382"
       gradientTransform="matrix(1.3983525,0,0,0.71512728,1.8052037,4.8000004)"
       gradientUnits="userSpaceOnUse">
      <stop
         offset="0%"
         stop-color="#ffe46b"
         id="stop9" />
      <stop
         offset="65%"
         stop-color="#e3b91c"
         id="stop11" />
      <stop
         offset="100%"
         stop-color="#b78f0e"
         id="stop13" />
    </linearGradient>
    <linearGradient
       inkscape:collect="always"
       xlink:href="#skin"
       id="linearGradient1333"
       gradientUnits="userSpaceOnUse"
       x1="40.299999"
       y1="35.200001"
       x2="40.299999"
       y2="41.200001"
       gradientTransform="translate(-95.457626,-50.711864)" />
    <linearGradient
       inkscape:collect="always"
       xlink:href="#boot"
       id="linearGradient1335"
       gradientUnits="userSpaceOnUse"
       gradientTransform="matrix(1.7212883,0,0,0.58096021,-95.457626,-50.711864)"
       x1="14.579167"
       y1="96.47821"
       x2="14.579167"
       y2="103.19123" />
    <linearGradient
       inkscape:collect="always"
       xlink:href="#boot"
       id="linearGradient1337"
       gradientUnits="userSpaceOnUse"
       gradientTransform="matrix(1.7212883,0,0,0.58096021,-95.457626,-50.711864)"
       x1="18.878273"
       y1="96.47821"
       x2="18.878273"
       y2="103.19123" />
    <linearGradient
       inkscape:collect="always"
       xlink:href="#cape-1"
       id="linearGradient1323"
       gradientUnits="userSpaceOnUse"
       gradientTransform="matrix(0.98669975,0,0,1.0134795,-95.457626,-50.711864)"
       x1="19.670059"
       y1="27.775599"
       x2="19.670059"
       y2="56.957245" />
    <linearGradient
       id="cape-1"
       x1="19.670059"
       y1="27.775599"
       x2="19.670059"
       y2="56.957245"
       gradientTransform="matrix(0.98669975,0,0,1.0134795,1.8052037,4.8000004)"
       gradientUnits="userSpaceOnUse">
      <stop
         offset="0%"
         stop-color="#9b2a2a"
         id="stop23" />
      <stop
         offset="70%"
         stop-color="#6f1e1e"
         id="stop25" />
      <stop
         offset="100%"
         stop-color="#4c1414"
         id="stop27" />
    </linearGradient>
  </defs>
  <!-- Right-facing (mirrored) with differentiation: raised front arm, slight forward leading foot -->
  <g
     id="g15178"
     transform="translate(95.457626,50.711864)">
    <ellipse
       cx="-62.767887"
       cy="6.6881375"
       rx="10.6"
       ry="2.8"
       fill="#000000"
       opacity="0.18"
       id="ellipse1279" />
    <path
       d="m -69.198775,-25.743453 h 11.871885 a 2.8877548,3.1033963 0 0 1 2.88775,3.103396 v 12.241174 a 5.2140017,5.6033544 0 0 1 -5.214,5.603354 h -7.219388 a 5.2140017,5.6033544 0 0 1 -5.214001,-5.603354 v -12.241174 a 2.8877548,3.1033963 0 0 1 2.887754,-3.103396 z"
       fill="url(#robe)"
       stroke="#1d3557"
       stroke-width="0.748409"
       id="path1283"
       style="fill:url(#linearGradient1325)" />
    <rect
       x="-72.582886"
       y="-14.308224"
       width="17.74012"
       height="3.0927241"
       rx="1.0751588"
       fill="#603813"
       stroke="#3d2610"
       stroke-width="0.567266"
       id="rect1285" />
    <rect
       x="-55.51836"
       y="-14.671089"
       width="1.9184501"
       height="3.8184526"
       rx="0.33855003"
       fill="#e0c56c"
       stroke="#8a6f2e"
       stroke-width="0.381548"
       id="rect1287" />
    <path
       id="circle1289"
       style="fill:url(#linearGradient1327);stroke:#915f2c;stroke-width:0.805462"
       d="m -54.55914,-35.660196 c -2.46126,1.166899 -0.96809,3.59904 -2.46126,5.166899 -1.49316,1.567859 -4.340134,2.628704 -6.342435,2.628702 -4.0046,-4e-6 -7.25097,-4.095372 -7.25097,-9.147269 0,-5.051897 3.247182,-9.066615 7.25097,-9.147269 1.849999,-0.03727 6.740105,2.16112 7.150005,5.247269 0.35189,2.649374 0.8975,1.961211 1.65369,5.251668 z"
       sodipodi:nodetypes="csssssc" />
    <path
       d="m -70.430014,-33.716975 c -1.460769,-4.930127 1.1638,-9.946205 4.021684,-11.596205 3.377502,-1.950002 7.73389,-1.248684 10.1955,4.401316 -1.52487,2.958846 -4.04461,-0.564979 -7.150005,4.947102 -1.227108,2.178119 -4.811923,1.754005 -7.067179,2.247787 z"
       fill="url(#hair)"
       stroke="#805e11"
       stroke-width="0.8"
       id="path1291"
       style="fill:url(#linearGradient1329)"
       sodipodi:nodetypes="cscsc" />
    <path
       d="m -71.125549,-36.317629 c 3.128461,0.618653 4.512011,-1.521737 7.862714,-3.918147 1.978464,-1.373204 2.263229,-2.480243 5.579795,-3.270913 0.80981,0.802628 1.91279,1.848411 1.57564,3.265179 -0.6995,1.349439 -4.487742,0.744657 -7.155435,4.898324 -1.513108,2.35595 -4.419893,3.388697 -6.861752,3.759274 -0.576795,-1.399038 -0.843782,-2.861474 -1.000962,-4.733717 z"
       fill="#f3cf4a"
       opacity="0.45"
       id="path1293"
       sodipodi:nodetypes="ccccscc" />
    <ellipse
       cx="-58.626202"
       cy="-37.483383"
       rx="1.2"
       ry="0.85000002"
       fill="#1b2a41"
       stroke="#ffffff"
       stroke-width="0.5"
       id="ellipse1295" />
    <circle
       cx="-58.426197"
       cy="-37.583382"
       r="0.25"
       fill="#ffffff"
       id="circle1299" />
    <path
       id="ellipse1319"
       d="m -56.15099,-33.239208 a 5.8000002,2 0 0 0 -5.419921,1.992188 5.8000002,2 0 0 0 3.257811,1.794922 c 0.48903,-0.312297 0.93146,-0.661419 1.29297,-1.041016 0.74969,-0.787185 0.7466,-1.792691 0.86914,-2.746094 z"
       style="opacity:0.16;fill:#000000" />
    <circle
       cx="-53.212833"
       cy="-17.131527"
       r="2.5999999"
       fill="url(#skin)"
       stroke="#915f2c"
       stroke-width="0.8"
       id="circle1307"
       style="fill:url(#linearGradient1333)" />
    <rect
       x="-62.192616"
       y="-16.635807"
       width="6"
       height="6.8000002"
       rx="1.2"
       fill="#2f3b57"
       stroke="#1c2638"
       stroke-width="0.7"
       id="rect1311"
       transform="rotate(-10.703513)" />
    <path
       d="m -66.840359,0.888136 h 7.3 a 2.2,2.2 0 0 1 2.199999,2.2 v 1 h -10.699999 z"
       fill="url(#boot)"
       stroke="#3a230f"
       stroke-width="0.7"
       id="path1313"
       style="fill:url(#linearGradient1335)" />
    <path
       d="m -63.062834,0.888136 h 7.300004 a 2.2,2.2 0 0 1 2.2,2.2 v 1 h -10.700004 z"
       fill="url(#boot)"
       stroke="#3a230f"
       stroke-width="0.7"
       id="path1315"
       style="fill:url(#linearGradient1337)" />
    <ellipse
       cx="-35.835705"
       cy="-67.414764"
       rx="5.5999999"
       ry="2.2"
       fill="#ffffff"
       opacity="0.22"
       id="ellipse1317"
       transform="rotate(-30)" />
    <path
       id="path1281"
       style="fill:url(#linearGradient1323);stroke:#2a2a2a;stroke-opacity:1"
       d="m -69.198775,-25.743453 c -2.537656,0.242618 -2.731933,1.829058 -3.329672,3.500365 -2.777593,7.76629 0,24.744141 0,24.744141 4.876457,0.07413 5.905057,-0.54114 8.175782,-1.861328 3.399999,-6.299994 3.518841,-15.422343 1.601559,-24.5 -0.611729,-2.896321 -1.669213,-2.340032 -6.447669,-1.883178 z"
       sodipodi:nodetypes="ssccss" />
    <path
       d="m -58.89415,-32.711864 c 0.5,0.4 1.375,0.6 2.25,0.6"
       fill="none"
       stroke="#7a3e12"
       stroke-width="0.6"
       stroke-linecap="round"
       id="path6879"
       sodipodi:nodetypes="cc" />
  </g>
</svg>
